<svg width="85" height="34" viewBox="0 0 85 34" fill="none" xmlns="http://www.w3.org/2000/svg">
<path d="M34.7698 28.0567C34.4843 28.0567 34.2281 28.0063 34.0014 27.9055C33.7747 27.8006 33.5941 27.6599 33.4598 27.4836C33.3296 27.3072 33.2582 27.112 33.2456 26.8978H34.1337C34.1505 27.0322 34.2155 27.1435 34.3289 27.2316C34.4465 27.3198 34.5913 27.3639 34.7635 27.3639C34.9314 27.3639 35.0616 27.3303 35.154 27.2631C35.2505 27.1959 35.2988 27.1099 35.2988 27.0049C35.2988 26.8915 35.24 26.8076 35.1225 26.753C35.0091 26.6942 34.8264 26.6312 34.5745 26.564C34.3142 26.5011 34.1001 26.436 33.9321 26.3688C33.7684 26.3016 33.6256 26.1987 33.5038 26.0602C33.3863 25.9216 33.3275 25.7348 33.3275 25.4997C33.3275 25.3065 33.3821 25.1302 33.4913 24.9706C33.6046 24.8111 33.7642 24.6851 33.9699 24.5927C34.1798 24.5004 34.4255 24.4542 34.7068 24.4542C35.1225 24.4542 35.4542 24.5591 35.7019 24.7691C35.9496 24.9748 36.0861 25.254 36.1113 25.6067H35.2673C35.2547 25.4682 35.1959 25.359 35.091 25.2792C34.9902 25.1952 34.8537 25.1533 34.6816 25.1533C34.522 25.1533 34.3982 25.1826 34.31 25.2414C34.226 25.3002 34.184 25.3821 34.184 25.4871C34.184 25.6046 34.2428 25.6949 34.3604 25.7579C34.478 25.8167 34.6606 25.8775 34.9083 25.9405C35.1602 26.0035 35.3681 26.0686 35.5318 26.1358C35.6956 26.2029 35.8362 26.3079 35.9538 26.4507C36.0756 26.5892 36.1386 26.774 36.1428 27.0049C36.1428 27.2064 36.0861 27.387 35.9727 27.5465C35.8635 27.7061 35.704 27.8321 35.494 27.9244C35.2883 28.0126 35.0469 28.0567 34.7698 28.0567ZM38.8315 24.4605C39.0961 24.4605 39.3312 24.5192 39.5369 24.6368C39.7427 24.7502 39.9022 24.9202 40.0156 25.147C40.1332 25.3695 40.1919 25.6382 40.1919 25.9531V28H39.3102V26.0728C39.3102 25.7957 39.2409 25.5836 39.1024 25.4367C38.9638 25.2855 38.7749 25.2099 38.5355 25.2099C38.292 25.2099 38.0989 25.2855 37.9561 25.4367C37.8176 25.5836 37.7483 25.7957 37.7483 26.0728V28H36.8665V23.3394H37.7483V24.9454C37.8616 24.7943 38.0128 24.6767 38.2017 24.5927C38.3907 24.5046 38.6006 24.4605 38.8315 24.4605ZM42.5798 28.0567C42.2439 28.0567 41.9415 27.9832 41.6728 27.8362C41.4041 27.6851 41.1921 27.4731 41.0367 27.2001C40.8856 26.9272 40.81 26.6123 40.81 26.2554C40.81 25.8985 40.8877 25.5836 41.043 25.3107C41.2026 25.0378 41.4188 24.8279 41.6917 24.6809C41.9646 24.5297 42.269 24.4542 42.6049 24.4542C42.9408 24.4542 43.2453 24.5297 43.5182 24.6809C43.7911 24.8279 44.0052 25.0378 44.1606 25.3107C44.3201 25.5836 44.3999 25.8985 44.3999 26.2554C44.3999 26.6123 44.318 26.9272 44.1543 27.2001C43.9947 27.4731 43.7764 27.6851 43.4993 27.8362C43.2264 27.9832 42.9199 28.0567 42.5798 28.0567ZM42.5798 27.2883C42.7393 27.2883 42.8884 27.2505 43.0269 27.1749C43.1697 27.0952 43.283 26.9776 43.367 26.8223C43.451 26.6669 43.493 26.478 43.493 26.2554C43.493 25.9237 43.4048 25.6697 43.2285 25.4934C43.0563 25.3128 42.8443 25.2225 42.5924 25.2225C42.3404 25.2225 42.1284 25.3128 41.9562 25.4934C41.7883 25.6697 41.7043 25.9237 41.7043 26.2554C41.7043 26.5871 41.7862 26.8432 41.9499 27.0238C42.1179 27.2001 42.3278 27.2883 42.5798 27.2883ZM45.9284 25.0147C46.0418 24.8551 46.1971 24.7229 46.3945 24.6179C46.596 24.5088 46.8249 24.4542 47.081 24.4542C47.3791 24.4542 47.6478 24.5276 47.8871 24.6746C48.1307 24.8216 48.3217 25.0315 48.4603 25.3044C48.603 25.5731 48.6744 25.8859 48.6744 26.2428C48.6744 26.5997 48.603 26.9167 48.4603 27.1938C48.3217 27.4668 48.1307 27.6788 47.8871 27.83C47.6478 27.9811 47.3791 28.0567 47.081 28.0567C46.8249 28.0567 46.5981 28.0042 46.4008 27.8992C46.2076 27.7943 46.0502 27.662 45.9284 27.5025V29.6627H45.0467V24.5109H45.9284V25.0147ZM47.7738 26.2428C47.7738 26.0329 47.7297 25.8523 47.6415 25.7012C47.5575 25.5458 47.4442 25.4283 47.3014 25.3485C47.1629 25.2687 47.0117 25.2288 46.8479 25.2288C46.6884 25.2288 46.5372 25.2708 46.3945 25.3548C46.2559 25.4346 46.1426 25.5521 46.0544 25.7075C45.9704 25.8628 45.9284 26.0455 45.9284 26.2554C45.9284 26.4654 45.9704 26.648 46.0544 26.8034C46.1426 26.9587 46.2559 27.0784 46.3945 27.1624C46.5372 27.2421 46.6884 27.282 46.8479 27.282C47.0117 27.282 47.1629 27.24 47.3014 27.1561C47.4442 27.0721 47.5575 26.9524 47.6415 26.7971C47.7297 26.6417 47.7738 26.457 47.7738 26.2428ZM50.1969 25.0147C50.3102 24.8551 50.4656 24.7229 50.6629 24.6179C50.8645 24.5088 51.0933 24.4542 51.3494 24.4542C51.6475 24.4542 51.9162 24.5276 52.1556 24.6746C52.3991 24.8216 52.5901 25.0315 52.7287 25.3044C52.8715 25.5731 52.9428 25.8859 52.9428 26.2428C52.9428 26.5997 52.8715 26.9167 52.7287 27.1938C52.5901 27.4668 52.3991 27.6788 52.1556 27.83C51.9162 27.9811 51.6475 28.0567 51.3494 28.0567C51.0933 28.0567 50.8666 28.0042 50.6692 27.8992C50.4761 27.7943 50.3186 27.662 50.1969 27.5025V29.6627H49.3151V24.5109H50.1969V25.0147ZM52.0422 26.2428C52.0422 26.0329 51.9981 25.8523 51.9099 25.7012C51.826 25.5458 51.7126 25.4283 51.5698 25.3485C51.4313 25.2687 51.2801 25.2288 51.1164 25.2288C50.9568 25.2288 50.8057 25.2708 50.6629 25.3548C50.5244 25.4346 50.411 25.5521 50.3228 25.7075C50.2389 25.8628 50.1969 26.0455 50.1969 26.2554C50.1969 26.4654 50.2389 26.648 50.3228 26.8034C50.411 26.9587 50.5244 27.0784 50.6629 27.1624C50.8057 27.2421 50.9568 27.282 51.1164 27.282C51.2801 27.282 51.4313 27.24 51.5698 27.1561C51.7126 27.0721 51.826 26.9524 51.9099 26.7971C51.9981 26.6417 52.0422 26.457 52.0422 26.2428ZM54.0307 24.0952C53.8754 24.0952 53.7452 24.0469 53.6403 23.9503C53.5395 23.8496 53.4891 23.7257 53.4891 23.5787C53.4891 23.4318 53.5395 23.31 53.6403 23.2134C53.7452 23.1127 53.8754 23.0623 54.0307 23.0623C54.1861 23.0623 54.3141 23.1127 54.4149 23.2134C54.5199 23.31 54.5724 23.4318 54.5724 23.5787C54.5724 23.7257 54.5199 23.8496 54.4149 23.9503C54.3141 24.0469 54.1861 24.0952 54.0307 24.0952ZM54.4653 24.5109V28H53.5836V24.5109H54.4653ZM57.27 24.4605C57.6856 24.4605 58.0215 24.5927 58.2777 24.8572C58.5338 25.1176 58.6619 25.4829 58.6619 25.9531V28H57.7801V26.0728C57.7801 25.7957 57.7108 25.5836 57.5723 25.4367C57.4337 25.2855 57.2448 25.2099 57.0055 25.2099C56.7619 25.2099 56.5688 25.2855 56.426 25.4367C56.2875 25.5836 56.2182 25.7957 56.2182 26.0728V28H55.3365V24.5109H56.2182V24.9454C56.3358 24.7943 56.4848 24.6767 56.6654 24.5927C56.8501 24.5046 57.0516 24.4605 57.27 24.4605ZM60.867 24.4542C61.1273 24.4542 61.3562 24.5067 61.5535 24.6116C61.7509 24.7124 61.9062 24.8447 62.0196 25.0084V24.5109H62.9076V28.0252C62.9076 28.3485 62.8425 28.6361 62.7124 28.888C62.5822 29.1442 62.387 29.3457 62.1266 29.4926C61.8663 29.6438 61.5514 29.7194 61.1819 29.7194C60.6865 29.7194 60.2792 29.6039 59.9601 29.373C59.6452 29.1421 59.4667 28.8272 59.4248 28.4283H60.3002C60.3464 28.5878 60.4451 28.7138 60.5962 28.8062C60.7516 28.9027 60.9384 28.951 61.1567 28.951C61.4129 28.951 61.6207 28.8733 61.7803 28.718C61.9398 28.5668 62.0196 28.3359 62.0196 28.0252V27.4836C61.9062 27.6473 61.7488 27.7838 61.5472 27.8929C61.3499 28.0021 61.1231 28.0567 60.867 28.0567C60.5731 28.0567 60.3044 27.9811 60.0609 27.83C59.8173 27.6788 59.6242 27.4668 59.4814 27.1938C59.3429 26.9167 59.2736 26.5997 59.2736 26.2428C59.2736 25.8901 59.3429 25.5773 59.4814 25.3044C59.6242 25.0315 59.8152 24.8216 60.0546 24.6746C60.2981 24.5276 60.5689 24.4542 60.867 24.4542ZM62.0196 26.2554C62.0196 26.0413 61.9776 25.8586 61.8936 25.7075C61.8096 25.5521 61.6963 25.4346 61.5535 25.3548C61.4108 25.2708 61.2575 25.2288 61.0938 25.2288C60.93 25.2288 60.7789 25.2687 60.6403 25.3485C60.5017 25.4283 60.3884 25.5458 60.3002 25.7012C60.2162 25.8523 60.1742 26.0329 60.1742 26.2428C60.1742 26.4528 60.2162 26.6375 60.3002 26.7971C60.3884 26.9524 60.5017 27.0721 60.6403 27.1561C60.7831 27.24 60.9342 27.282 61.0938 27.282C61.2575 27.282 61.4108 27.2421 61.5535 27.1624C61.6963 27.0784 61.8096 26.9608 61.8936 26.8097C61.9776 26.6543 62.0196 26.4696 62.0196 26.2554ZM66.8188 28.0567C66.4829 28.0567 66.1806 27.9832 65.9119 27.8362C65.6432 27.6851 65.4311 27.4731 65.2758 27.2001C65.1246 26.9272 65.0491 26.6123 65.0491 26.2554C65.0491 25.8985 65.1267 25.5836 65.2821 25.3107C65.4416 25.0378 65.6579 24.8279 65.9308 24.6809C66.2037 24.5297 66.5081 24.4542 66.844 24.4542C67.1799 24.4542 67.4843 24.5297 67.7572 24.6809C68.0302 24.8279 68.2443 25.0378 68.3997 25.3107C68.5592 25.5836 68.639 25.8985 68.639 26.2554C68.639 26.6123 68.5571 26.9272 68.3934 27.2001C68.2338 27.4731 68.0155 27.6851 67.7384 27.8362C67.4654 27.9832 67.1589 28.0567 66.8188 28.0567ZM66.8188 27.2883C66.9784 27.2883 67.1274 27.2505 67.266 27.1749C67.4088 27.0952 67.5221 26.9776 67.6061 26.8223C67.6901 26.6669 67.7321 26.478 67.7321 26.2554C67.7321 25.9237 67.6439 25.6697 67.4675 25.4934C67.2954 25.3128 67.0833 25.2225 66.8314 25.2225C66.5795 25.2225 66.3675 25.3128 66.1953 25.4934C66.0274 25.6697 65.9434 25.9237 65.9434 26.2554C65.9434 26.5871 66.0253 26.8432 66.189 27.0238C66.357 27.2001 66.5669 27.2883 66.8188 27.2883ZM71.2193 24.4605C71.635 24.4605 71.9709 24.5927 72.227 24.8572C72.4831 25.1176 72.6112 25.4829 72.6112 25.9531V28H71.7294V26.0728C71.7294 25.7957 71.6601 25.5836 71.5216 25.4367C71.383 25.2855 71.1941 25.2099 70.9548 25.2099C70.7112 25.2099 70.5181 25.2855 70.3753 25.4367C70.2368 25.5836 70.1675 25.7957 70.1675 26.0728V28H69.2858V24.5109H70.1675V24.9454C70.2851 24.7943 70.4341 24.6767 70.6147 24.5927C70.7994 24.5046 71.0009 24.4605 71.2193 24.4605ZM74.3314 23.3394V28H73.4496V23.3394H74.3314ZM75.6497 24.0952C75.4943 24.0952 75.3642 24.0469 75.2592 23.9503C75.1584 23.8496 75.1081 23.7257 75.1081 23.5787C75.1081 23.4318 75.1584 23.31 75.2592 23.2134C75.3642 23.1127 75.4943 23.0623 75.6497 23.0623C75.8051 23.0623 75.9331 23.1127 76.0339 23.2134C76.1388 23.31 76.1913 23.4318 76.1913 23.5787C76.1913 23.7257 76.1388 23.8496 76.0339 23.9503C75.9331 24.0469 75.8051 24.0952 75.6497 24.0952ZM76.0843 24.5109V28H75.2025V24.5109H76.0843ZM78.8889 24.4605C79.3046 24.4605 79.6405 24.5927 79.8966 24.8572C80.1528 25.1176 80.2808 25.4829 80.2808 25.9531V28H79.3991V26.0728C79.3991 25.7957 79.3298 25.5836 79.1912 25.4367C79.0527 25.2855 78.8637 25.2099 78.6244 25.2099C78.3809 25.2099 78.1878 25.2855 78.045 25.4367C77.9064 25.5836 77.8372 25.7957 77.8372 26.0728V28H76.9554V24.5109H77.8372V24.9454C77.9547 24.7943 78.1038 24.6767 78.2843 24.5927C78.4691 24.5046 78.6706 24.4605 78.8889 24.4605ZM84.3628 26.1798C84.3628 26.3058 84.3544 26.4192 84.3376 26.5199H81.7869C81.8079 26.7719 81.8961 26.9692 82.0514 27.112C82.2068 27.2547 82.3978 27.3261 82.6245 27.3261C82.9521 27.3261 83.1851 27.1854 83.3236 26.9041H84.2747C84.1739 27.24 83.9807 27.5171 83.6952 27.7355C83.4097 27.9496 83.0591 28.0567 82.6434 28.0567C82.3075 28.0567 82.0052 27.9832 81.7365 27.8362C81.472 27.6851 81.2642 27.4731 81.113 27.2001C80.966 26.9272 80.8926 26.6123 80.8926 26.2554C80.8926 25.8943 80.966 25.5773 81.113 25.3044C81.26 25.0315 81.4657 24.8216 81.7302 24.6746C81.9947 24.5276 82.2991 24.4542 82.6434 24.4542C82.9751 24.4542 83.2712 24.5255 83.5315 24.6683C83.796 24.8111 83.9996 25.0147 84.1424 25.2792C84.2893 25.5395 84.3628 25.8398 84.3628 26.1798ZM83.4496 25.9279C83.4454 25.7012 83.3635 25.5206 83.204 25.3863C83.0444 25.2477 82.8492 25.1785 82.6183 25.1785C82.3999 25.1785 82.2152 25.2456 82.064 25.38C81.9171 25.5102 81.8268 25.6928 81.7932 25.9279H83.4496Z" fill="#D7513E"/>
<path d="M45.2512 21H41.9672L36.4747 12.6844V21H33.1907V7.5183H36.4747L41.9672 15.8723V7.5183H45.2512V21ZM50.8581 7.5183V15.5843C50.8581 16.3909 51.0566 17.0118 51.4535 17.4471C51.8504 17.8824 52.4329 18.1001 53.2011 18.1001C53.9693 18.1001 54.5582 17.8824 54.9679 17.4471C55.3776 17.0118 55.5825 16.3909 55.5825 15.5843V7.5183H58.8665V15.5651C58.8665 16.7686 58.6104 17.7864 58.0983 18.6186C57.5862 19.4508 56.8948 20.0782 56.0242 20.5007C55.1664 20.9232 54.2061 21.1344 53.1435 21.1344C52.0808 21.1344 51.127 20.9296 50.282 20.5199C49.4498 20.0974 48.7904 19.47 48.3039 18.6378C47.8174 17.7928 47.5741 16.7686 47.5741 15.5651V7.5183H50.8581ZM69.9491 7.5183V10.1493H64.4565V12.9916H68.5664V15.5459H64.4565V21H61.1725V7.5183H69.9491ZM74.9015 7.5183V15.5843C74.9015 16.3909 75.1 17.0118 75.4968 17.4471C75.8937 17.8824 76.4763 18.1001 77.2445 18.1001C78.0127 18.1001 78.6016 17.8824 79.0113 17.4471C79.421 17.0118 79.6259 16.3909 79.6259 15.5843V7.5183H82.9099V15.5651C82.9099 16.7686 82.6538 17.7864 82.1417 18.6186C81.6295 19.4508 80.9382 20.0782 80.0676 20.5007C79.2098 20.9232 78.2495 21.1344 77.1869 21.1344C76.1242 21.1344 75.1704 20.9296 74.3254 20.5199C73.4932 20.0974 72.8338 19.47 72.3473 18.6378C71.8608 17.7928 71.6175 16.7686 71.6175 15.5651V7.5183H74.9015Z" fill="#D7513E"/>
<path d="M36.0742 5H33.6152C31.6032 5 29.8592 6.433 29.4702 8.407L27.5242 18.276H3.05325L1.85125 12.181H26.4212C26.9212 12.181 27.3272 11.776 27.3272 11.275C27.3272 10.775 26.9212 10.369 26.4212 10.369H1.63124C1.14124 10.369 0.682242 10.586 0.371242 10.964C0.0602422 11.342 -0.063758 11.835 0.031242 12.315L2.69424 25.822C2.94224 27.077 4.05125 27.989 5.33025 27.989H5.54724C5.24324 28.516 5.05524 29.119 5.05524 29.77C5.05524 31.751 6.66724 33.363 8.64824 33.363C9.14824 33.363 9.55424 32.958 9.55424 32.457C9.55424 31.957 9.14924 31.551 8.64824 31.551C7.66624 31.551 6.86724 30.752 6.86724 29.77C6.86724 28.788 7.66624 27.989 8.64824 27.989C9.63024 27.989 10.4302 28.788 10.4302 29.77C10.4302 30.27 10.8362 30.676 11.3362 30.676C11.8362 30.676 12.2422 30.271 12.2422 29.77C12.2422 29.119 12.0552 28.516 11.7502 27.989H18.8272C18.5232 28.516 18.3352 29.119 18.3352 29.77C18.3352 31.751 19.9472 33.363 21.9282 33.363C22.4282 33.363 22.8342 32.958 22.8342 32.457C22.8342 31.957 22.4292 31.551 21.9282 31.551C20.9462 31.551 20.1462 30.752 20.1462 29.77C20.1462 28.788 20.9452 27.989 21.9282 27.989C22.9102 27.989 23.7092 28.788 23.7092 29.77C23.7092 30.27 24.1152 30.676 24.6152 30.676C25.1152 30.676 25.5212 30.271 25.5212 29.77C25.5212 29.119 25.3342 28.516 25.0292 27.989H25.2462C26.5262 27.989 27.6352 27.077 27.8822 25.821L31.2472 8.756C31.4702 7.628 32.4652 6.81 33.6152 6.81H36.0742C36.5742 6.81 36.9802 6.405 36.9802 5.904C36.9802 5.403 36.5742 5 36.0742 5ZM25.2462 26.179H5.33025C4.91325 26.179 4.55224 25.882 4.47124 25.472L3.40924 20.088H27.1662L26.1042 25.472C26.0242 25.882 25.6632 26.179 25.2462 26.179Z" fill="#D7513E"/>
<path d="M36.0742 5H33.6152C31.6032 5 29.8592 6.433 29.4702 8.407L27.5242 18.276H3.05325L1.85125 12.181H26.4212C26.9212 12.181 27.3272 11.776 27.3272 11.275C27.3272 10.775 26.9212 10.369 26.4212 10.369H1.63124C1.14124 10.369 0.682242 10.586 0.371242 10.964C0.0602422 11.342 -0.063758 11.835 0.031242 12.315L2.69424 25.822C2.94224 27.077 4.05125 27.989 5.33025 27.989H5.54724C5.24324 28.516 5.05524 29.119 5.05524 29.77C5.05524 31.751 6.66724 33.363 8.64824 33.363C9.14824 33.363 9.55424 32.958 9.55424 32.457C9.55424 31.957 9.14924 31.551 8.64824 31.551C7.66624 31.551 6.86724 30.752 6.86724 29.77C6.86724 28.788 7.66624 27.989 8.64824 27.989C9.63024 27.989 10.4302 28.788 10.4302 29.77C10.4302 30.27 10.8362 30.676 11.3362 30.676C11.8362 30.676 12.2422 30.271 12.2422 29.77C12.2422 29.119 12.0552 28.516 11.7502 27.989H18.8272C18.5232 28.516 18.3352 29.119 18.3352 29.77C18.3352 31.751 19.9472 33.363 21.9282 33.363C22.4282 33.363 22.8342 32.958 22.8342 32.457C22.8342 31.957 22.4292 31.551 21.9282 31.551C20.9462 31.551 20.1462 30.752 20.1462 29.77C20.1462 28.788 20.9452 27.989 21.9282 27.989C22.9102 27.989 23.7092 28.788 23.7092 29.77C23.7092 30.27 24.1152 30.676 24.6152 30.676C25.1152 30.676 25.5212 30.271 25.5212 29.77C25.5212 29.119 25.3342 28.516 25.0292 27.989H25.2462C26.5262 27.989 27.6352 27.077 27.8822 25.821L31.2472 8.756C31.4702 7.628 32.4652 6.81 33.6152 6.81H36.0742C36.5742 6.81 36.9802 6.405 36.9802 5.904C36.9802 5.403 36.5742 5 36.0742 5ZM25.2462 26.179H5.33025C4.91325 26.179 4.55224 25.882 4.47124 25.472L3.40924 20.088H27.1662L26.1042 25.472C26.0242 25.882 25.6632 26.179 25.2462 26.179Z" fill="#D7513E"/>
</svg>
