<svg width="37" height="29" viewBox="0 0 37 29" fill="none" xmlns="http://www.w3.org/2000/svg">
<path d="M36.0742 0H33.6152C31.6032 0 29.8592 1.433 29.4702 3.407L27.5242 13.276H3.05325L1.85125 7.181H26.4212C26.9212 7.181 27.3272 6.77601 27.3272 6.27501C27.3272 5.77501 26.9212 5.369 26.4212 5.369H1.63124C1.14124 5.369 0.682242 5.586 0.371242 5.964C0.0602422 6.342 -0.063758 6.835 0.031242 7.315L2.69424 20.822C2.94224 22.077 4.05125 22.989 5.33025 22.989H5.54724C5.24324 23.516 5.05524 24.119 5.05524 24.77C5.05524 26.751 6.66724 28.363 8.64824 28.363C9.14824 28.363 9.55424 27.958 9.55424 27.457C9.55424 26.957 9.14924 26.551 8.64824 26.551C7.66624 26.551 6.86724 25.752 6.86724 24.77C6.86724 23.788 7.66624 22.989 8.64824 22.989C9.63024 22.989 10.4302 23.788 10.4302 24.77C10.4302 25.27 10.8362 25.676 11.3362 25.676C11.8362 25.676 12.2422 25.271 12.2422 24.77C12.2422 24.119 12.0552 23.516 11.7502 22.989H18.8272C18.5232 23.516 18.3352 24.119 18.3352 24.77C18.3352 26.751 19.9472 28.363 21.9282 28.363C22.4282 28.363 22.8342 27.958 22.8342 27.457C22.8342 26.957 22.4292 26.551 21.9282 26.551C20.9462 26.551 20.1462 25.752 20.1462 24.77C20.1462 23.788 20.9452 22.989 21.9282 22.989C22.9102 22.989 23.7092 23.788 23.7092 24.77C23.7092 25.27 24.1152 25.676 24.6152 25.676C25.1152 25.676 25.5212 25.271 25.5212 24.77C25.5212 24.119 25.3342 23.516 25.0292 22.989H25.2462C26.5262 22.989 27.6352 22.077 27.8822 20.821L31.2472 3.756C31.4702 2.628 32.4652 1.81 33.6152 1.81H36.0742C36.5742 1.81 36.9802 1.405 36.9802 0.904003C36.9802 0.403003 36.5742 0 36.0742 0ZM25.2462 21.179H5.33025C4.91325 21.179 4.55224 20.882 4.47124 20.472L3.40924 15.088H27.1662L26.1042 20.472C26.0242 20.882 25.6632 21.179 25.2462 21.179Z" fill="#D7513E"/>
</svg>
